<svg width="200" height="200" viewBox="0 0 200 200" fill="none" xmlns="http://www.w3.org/2000/svg">
<path d="M75.0063 25H119.394L73.3188 169.881C72.8918 171.337 72.011 172.619 70.8048 173.54C69.5985 174.461 68.1298 174.972 66.6126 175H32.0626C30.1329 174.941 28.3053 174.119 26.9812 172.714C25.6571 171.309 24.9446 169.436 25.0001 167.506C25.0035 166.69 25.1299 165.879 25.3751 165.1L68.3126 30.1062C68.7412 28.6544 69.6211 27.3768 70.8246 26.4587C72.0282 25.5406 73.4929 25.0297 75.0063 25Z" fill="#01579B"/>
<path d="M139.5 125H69.1248C68.2368 125.025 67.3947 125.4 66.7832 126.045C66.1716 126.689 65.8405 127.549 65.8623 128.437C65.8575 128.91 65.9467 129.379 66.1248 129.817C66.3029 130.255 66.5664 130.653 66.8998 130.988L112.125 172.962C113.407 174.254 115.149 174.984 116.969 174.994H156.819L139.5 125Z" fill="#1976D2"/>
<path d="M131.693 30.1C131.264 28.6503 130.385 27.3749 129.182 26.458C127.98 25.5412 126.517 25.0306 125.006 25H75.5371C77.0501 25.0275 78.515 25.5361 79.7196 26.4519C80.9242 27.3677 81.806 28.6433 82.2371 30.0937L125.162 165.087C125.778 166.938 125.661 168.954 124.835 170.721C124.01 172.488 122.539 173.872 120.725 174.587C119.998 174.847 119.233 174.982 118.462 174.987H167.931C169.861 174.93 171.689 174.11 173.014 172.706C174.339 171.302 175.053 169.43 175 167.5C174.996 166.684 174.87 165.872 174.625 165.094L131.7 30.1062L131.693 30.1Z" fill="#29B6F6"/>
</svg>
