<svg width="200" height="200" viewBox="0 0 200 200" fill="none" xmlns="http://www.w3.org/2000/svg">
<path d="M29.3969 178.317L13.6875 2.1123H186.313L170.588 178.29L99.8953 197.889L29.3969 178.317Z" fill="#1572B6"/>
<path d="M100.002 182.909L157.125 167.072L170.564 16.5186H100.002V182.909Z" fill="#33A9DC"/>
<path d="M100.002 80.3578H128.599L130.574 58.2281H100.002V36.6172H154.193L153.674 42.4156L148.361 101.969H100.002V80.3578Z" fill="white"/>
<path d="M100.129 136.483L100.034 136.511L75.967 130.012L74.4279 112.776H52.7373L55.7639 146.709L100.031 158.995L100.129 158.967V136.483Z" fill="#EBEBEB"/>
<path d="M126.761 101.055L124.158 129.995L100.055 136.502V158.986L144.358 146.708L144.683 143.056L148.442 101.055H126.761Z" fill="white"/>
<path d="M100.075 36.6172V58.2281H47.8748L47.442 53.3719L46.4576 42.4156L45.9404 36.6172H100.075ZM100.001 80.3609V101.972H76.2373L75.8045 97.1156L74.8186 86.1594L74.3029 80.3609H100.001Z" fill="#EBEBEB"/>
</svg>
