<svg width="200" height="200" viewBox="0 0 200 200" fill="none" xmlns="http://www.w3.org/2000/svg">
<path d="M75 25H100V75H75C68.3696 75 62.0107 72.3661 57.3223 67.6777C52.6339 62.9893 50 56.6304 50 50C50 43.3696 52.6339 37.0107 57.3223 32.3223C62.0107 27.6339 68.3696 25 75 25Z" fill="#F4511E"/>
<path d="M125 75H100V25H125C131.63 25 137.989 27.6339 142.678 32.3223C147.366 37.0107 150 43.3696 150 50C150 56.6304 147.366 62.9893 142.678 67.6777C137.989 72.3661 131.63 75 125 75Z" fill="#FF8A65"/>
<path d="M100 100C100 113.807 111.193 125 125 125C138.807 125 150 113.807 150 100C150 86.1929 138.807 75 125 75C111.193 75 100 86.1929 100 100Z" fill="#29B6F6"/>
<path d="M75 75H100V125H75C68.3696 125 62.0107 122.366 57.3223 117.678C52.6339 112.989 50 106.63 50 100C50 93.3696 52.6339 87.0107 57.3223 82.3223C62.0107 77.6339 68.3696 75 75 75Z" fill="#7C4DFF"/>
<path d="M75 125H100V150C100 156.63 97.3661 162.989 92.6777 167.678C87.9893 172.366 81.6304 175 75 175C68.3696 175 62.0107 172.366 57.3223 167.678C52.6339 162.989 50 156.63 50 150C50 143.37 52.6339 137.011 57.3223 132.322C62.0107 127.634 68.3696 125 75 125Z" fill="#00E676"/>
</svg>
