<svg width="200" height="200" viewBox="0 0 200 200" fill="none" xmlns="http://www.w3.org/2000/svg">
<path d="M194.901 91.2155L108.782 5.0999C103.826 0.140527 95.7823 0.140527 90.8183 5.0999L72.937 22.9843L95.6214 45.6687C100.895 43.889 106.939 45.0827 111.14 49.2843C115.364 53.5124 116.548 59.6077 114.725 64.8983L136.587 86.7624C141.876 84.939 147.981 86.1171 152.203 90.3483C158.109 96.2499 158.109 105.817 152.203 111.722C150.799 113.126 149.133 114.24 147.298 115C145.464 115.76 143.498 116.151 141.513 116.151C139.527 116.151 137.561 115.76 135.727 115C133.893 114.24 132.227 113.126 130.823 111.722C128.715 109.611 127.278 106.925 126.692 104C126.107 101.075 126.4 98.0418 127.534 95.2827L107.146 74.8952L107.143 128.553C108.623 129.281 109.973 130.246 111.142 131.409C117.045 137.311 117.045 146.875 111.142 152.789C105.237 158.691 95.6667 158.691 89.7683 152.789C83.8652 146.876 83.8652 137.312 89.7683 131.409C91.1839 129.994 92.8657 128.874 94.7167 128.112V73.9577C92.8636 73.1995 91.1811 72.078 89.7683 70.6593C85.2964 66.1905 84.2198 59.628 86.5136 54.1343L64.1495 31.7702L5.09953 90.8171C2.71722 93.2002 1.37891 96.4318 1.37891 99.8015C1.37891 103.171 2.71722 106.403 5.09953 108.786L91.2198 194.901C96.1792 199.861 104.22 199.861 109.187 194.901L194.903 109.186C197.284 106.802 198.622 103.57 198.622 100.2C198.622 96.8306 197.283 93.5989 194.901 91.2155Z" fill="#F34F29"/>
</svg>
