<svg width="200" height="200" viewBox="0 0 200 200" fill="none" xmlns="http://www.w3.org/2000/svg">
<path d="M100 16.6665C89.0568 16.6665 78.2205 18.822 68.11 23.0099C57.9996 27.1978 48.813 33.3361 41.0748 41.0743C25.4467 56.7023 16.667 77.8985 16.667 99.9998C16.667 136.833 40.5837 168.083 73.667 179.166C77.8337 179.833 79.167 177.25 79.167 175V160.916C56.0837 165.916 51.167 149.75 51.167 149.75C47.3337 140.083 41.917 137.5 41.917 137.5C34.3337 132.333 42.5003 132.5 42.5003 132.5C50.8337 133.083 55.2503 141.083 55.2503 141.083C62.5003 153.75 74.7503 150 79.5003 148C80.2503 142.583 82.417 138.916 84.7503 136.833C66.2503 134.75 46.8337 127.583 46.8337 95.8332C46.8337 86.5832 50.0003 79.1665 55.417 73.2498C54.5837 71.1665 51.667 62.4998 56.2503 51.2498C56.2503 51.2498 63.2503 48.9998 79.167 59.7498C85.7503 57.9165 92.917 56.9998 100 56.9998C107.084 56.9998 114.25 57.9165 120.834 59.7498C136.75 48.9998 143.75 51.2498 143.75 51.2498C148.334 62.4998 145.417 71.1665 144.584 73.2498C150 79.1665 153.167 86.5832 153.167 95.8332C153.167 127.666 133.667 134.666 115.084 136.75C118.084 139.333 120.834 144.417 120.834 152.167V175C120.834 177.25 122.167 179.916 126.417 179.166C159.5 168 183.334 136.833 183.334 99.9998C183.334 89.0563 181.178 78.22 176.99 68.1095C172.802 57.9991 166.664 48.8125 158.926 41.0743C151.188 33.3361 142.001 27.1978 131.891 23.0099C121.78 18.822 110.944 16.6665 100 16.6665Z" fill="white"/>
</svg>
