<svg width="200" height="200" viewBox="0 0 200 200" fill="none" xmlns="http://www.w3.org/2000/svg">
<path d="M74.4015 153.31C74.4015 153.31 66.9531 157.644 79.7093 159.106C95.1656 160.872 103.064 160.619 120.092 157.4C120.092 157.4 124.578 160.205 130.831 162.636C92.6453 178.995 44.4125 161.688 74.4015 153.31ZM69.7328 131.958C69.7328 131.958 61.3765 138.144 74.1437 139.466C90.6547 141.171 103.691 141.31 126.259 136.966C126.259 136.966 129.373 140.13 134.278 141.858C88.1187 155.358 36.7062 142.921 69.7328 131.958Z" fill="#0074BD"/>
<path d="M109.066 95.7385C118.481 106.574 106.598 116.317 106.598 116.317C106.598 116.317 130.487 103.987 119.518 88.54C109.27 74.1416 101.413 66.99 143.948 42.3213C143.948 42.3229 77.1805 58.9932 109.066 95.7385Z" fill="#EA2D2E"/>
<path d="M159.566 169.111C159.566 169.111 165.08 173.658 153.491 177.172C131.457 183.847 61.7632 185.86 42.4069 177.439C35.4522 174.411 48.4991 170.213 52.6038 169.327C56.8835 168.4 59.3272 168.569 59.3272 168.569C51.5882 163.121 9.30692 179.272 37.8538 183.905C115.699 196.524 179.755 178.222 159.566 169.111ZM77.9866 109.838C77.9866 109.838 42.5397 118.258 65.4351 121.319C75.1038 122.613 94.3694 122.316 112.327 120.81C126.999 119.577 141.723 116.944 141.723 116.944C141.723 116.944 136.554 119.161 132.81 121.714C96.8069 131.185 27.2725 126.774 47.2929 117.093C64.2179 108.907 77.9866 109.838 77.9866 109.838ZM141.576 145.38C178.171 126.369 161.249 108.099 149.438 110.56C146.551 111.161 145.255 111.685 145.255 111.685C145.255 111.685 146.33 109.999 148.38 109.274C171.744 101.063 189.71 133.497 140.844 146.344C140.844 146.341 141.405 145.833 141.576 145.38Z" fill="#0074BD"/>
<path d="M119.513 2.47754C119.513 2.47754 139.776 22.7525 100.29 53.9197C68.6243 78.9291 93.0696 93.1854 100.279 109.481C81.793 92.8041 68.2337 78.1213 77.329 64.4572C90.6852 44.4041 127.687 34.6775 119.513 2.47754Z" fill="#EA2D2E"/>
<path d="M81.5891 196.909C116.708 199.154 170.652 195.659 171.928 179.04C171.928 179.04 169.473 185.34 142.902 190.338C112.923 195.982 75.9422 195.324 54.0156 191.704C54.0156 191.706 58.5078 195.424 81.5891 196.909Z" fill="#0074BD"/>
</svg>
