<svg width="200" height="200" viewBox="0 0 200 200" fill="none" xmlns="http://www.w3.org/2000/svg">
<path d="M12.5 12.5H187.5V187.5H12.5V12.5Z" fill="#F5DE19"/>
<path d="M130.056 149.219C131.55 152.246 133.867 154.79 136.742 156.559C139.616 158.328 142.931 159.25 146.306 159.219C153.119 159.219 157.475 155.812 157.475 151.094C157.475 145.469 153 143.456 145.5 140.175L141.388 138.412C129.513 133.356 121.638 127.025 121.638 113.637C121.638 101.306 131.013 91.9125 145.719 91.9125C150.479 91.5695 155.236 92.6353 159.395 94.9771C163.553 97.3188 166.931 100.833 169.106 105.081L156.25 113.3C155.412 111.194 153.954 109.392 152.069 108.133C150.184 106.874 147.961 106.217 145.694 106.25C144.705 106.151 143.706 106.259 142.761 106.567C141.816 106.876 140.946 107.377 140.206 108.041C139.465 108.704 138.871 109.514 138.462 110.42C138.052 111.325 137.835 112.306 137.825 113.3C137.825 118.231 140.881 120.231 147.938 123.3L152.05 125.062C166.025 131.056 173.925 137.162 173.925 150.894C173.925 165.7 162.294 173.812 146.675 173.812C140.59 174.196 134.524 172.813 129.207 169.829C123.89 166.845 119.549 162.388 116.706 156.994L130.056 149.219ZM71.9627 150.644C74.5439 155.225 76.8939 159.1 82.5439 159.1C87.9439 159.1 91.3564 156.987 91.3564 148.769V92.85H107.8V148.987C107.8 166.012 97.8002 173.762 83.2439 173.762C78.0986 174.044 72.9887 172.761 68.5857 170.084C64.1828 167.407 60.693 163.46 58.5752 158.762L71.9627 150.644Z" fill="black"/>
</svg>
