<svg width="200" height="200" viewBox="0 0 200 200" fill="none" xmlns="http://www.w3.org/2000/svg">
<path d="M0 142.676H6.62813V116.509L16.8875 139.319C18.0953 142.084 19.75 143.055 23.0031 143.055C26.2563 143.055 27.8438 142.084 29.0516 139.319L39.3109 116.509V142.675H45.9391V116.553C45.9391 114.001 44.9203 112.769 42.8141 112.134C37.7781 110.566 34.4031 111.92 32.8719 115.32L22.8078 137.836L13.0609 115.32C11.5969 111.92 8.15469 110.566 3.125 112.134C1.01875 112.769 0 114.001 0 116.553L0 142.676ZM51.4531 121.375H58.075V135.792C58.0141 136.573 58.325 138.411 61.9563 138.472H76.3672V121.301H83.0078C83.0391 121.301 82.9953 144.714 82.9953 144.812C83.0313 150.586 75.8359 151.837 72.5156 151.936H51.5938V147.48L72.5531 147.473C76.8187 147.028 76.3125 144.903 76.3125 144.195V142.456H62.2312C55.6766 142.395 51.5078 139.533 51.4531 136.242C51.4469 135.944 51.5938 121.522 51.4531 121.375Z" fill="#00618A"/>
<path d="M88.1113 142.677H107.166C109.394 142.677 111.561 142.206 113.282 141.402C116.15 140.089 117.547 138.302 117.547 135.964V131.124C117.547 129.213 115.96 127.425 112.835 126.241C111.18 125.6 109.136 125.264 107.164 125.264H99.1316C96.4582 125.264 95.1832 124.458 94.866 122.677C94.8051 122.463 94.8051 122.292 94.8051 122.078V119.063C94.8051 118.892 94.8051 118.721 94.866 118.508C95.1832 117.153 95.8848 116.769 98.241 116.555L98.8816 116.513H117.802V112.1H99.2004C96.527 112.1 95.1238 112.271 93.8473 112.65C89.8988 113.883 88.177 115.836 88.177 119.236V123.1C88.177 126.072 91.552 128.624 97.2223 129.216L99.1332 129.302H106.018C106.274 129.302 106.524 129.302 106.719 129.344C108.819 129.514 109.71 129.899 110.35 130.663C110.68 130.967 110.869 131.402 110.857 131.847V135.717C110.857 136.181 110.539 136.78 109.905 137.286C109.332 137.799 108.374 138.135 107.104 138.221L106.402 138.263H88.1113V142.677ZM158.888 134.986C158.888 139.533 162.269 142.078 169.08 142.591L170.997 142.677H188.264V138.258H170.869C166.982 138.258 165.516 137.281 165.516 134.944V112.091H158.894V134.985L158.888 134.986ZM121.779 135.217V119.464C121.779 115.466 124.593 113.038 130.146 112.274C130.738 112.188 131.336 112.145 131.935 112.146H144.508C145.149 112.146 145.722 112.188 146.364 112.274C151.919 113.036 154.727 115.466 154.727 119.464V135.217C154.727 138.464 153.536 140.199 150.785 141.333L157.316 147.224H149.619L144.339 142.456L139.024 142.792H131.938C130.621 142.788 129.311 142.603 128.044 142.242C123.827 141.096 121.782 138.88 121.782 135.217H121.779ZM128.932 134.833C128.932 135.047 128.993 135.26 129.06 135.517C129.444 137.349 131.166 138.367 133.783 138.367H139.802L134.272 133.375H141.969L146.791 137.733C147.682 137.256 148.261 136.536 148.469 135.603C148.53 135.389 148.53 135.177 148.53 134.963V119.856C148.53 119.686 148.53 119.472 148.469 119.258C148.085 117.555 146.363 116.578 143.807 116.578H133.785C130.849 116.578 128.933 117.853 128.933 119.856L128.932 134.833Z" fill="#E48E00"/>
<path d="M194.092 104.761C190.022 104.652 186.908 105.03 184.247 106.153C183.49 106.47 182.281 106.477 182.159 107.424C182.575 107.863 182.642 108.516 182.972 109.047C183.606 110.078 184.681 111.452 185.639 112.172L188.879 114.491C190.869 115.705 193.097 116.402 195.02 117.616C196.15 118.336 197.272 119.239 198.376 120.052C198.92 120.449 199.286 121.077 200 121.327V121.211C199.628 120.735 199.529 120.081 199.187 119.588L197.679 118.08C196.209 116.127 194.34 114.411 192.351 112.983C190.764 111.847 187.225 110.31 186.559 108.466L186.444 108.35C187.567 108.228 188.886 107.819 189.917 107.544C191.662 107.074 193.219 107.195 195.014 106.731L197.45 106.03V105.572C196.54 104.638 195.894 103.405 194.898 102.556C192.311 100.353 189.478 98.1439 186.561 96.3002C184.944 95.2814 182.948 94.622 181.233 93.7548C180.659 93.4627 179.645 93.3158 179.261 92.8267C178.364 91.6798 177.875 90.2267 177.179 88.8892L173.011 80.0877C172.133 78.0798 171.558 76.0955 170.459 74.2955C165.204 65.647 159.54 60.4283 150.769 55.3017C148.908 54.2095 146.654 53.7814 144.287 53.2205L140.461 52.9892C139.686 52.6595 138.879 51.708 138.148 51.2502C135.244 49.4127 127.79 45.422 125.636 50.6705C124.281 53.9845 127.669 57.2189 128.883 58.8986C129.731 60.0767 130.823 61.3955 131.428 62.7189C131.831 63.5861 131.898 64.458 132.24 65.3798C133.083 67.6502 133.815 70.1158 134.908 72.2158C135.458 73.2783 136.061 74.3955 136.758 75.3408C137.184 75.9205 137.917 76.183 138.033 77.0798C137.319 78.0814 137.276 79.6314 136.873 80.9002C135.061 86.6064 135.744 93.6986 138.381 97.9283C139.187 99.222 141.09 102.005 143.709 100.938C145.998 100.003 145.486 97.1173 146.139 94.5658C146.292 93.9923 146.2 93.5642 146.487 93.1798V93.2955L148.575 97.4642C150.119 99.9486 152.853 102.542 155.173 104.294C156.381 105.203 157.328 106.778 158.884 107.31V107.188H158.769C158.464 106.724 157.994 106.528 157.609 106.15C156.7 105.26 155.692 104.155 154.948 103.135C152.836 100.272 150.969 97.1345 149.272 93.8689C148.459 92.3127 147.751 90.5908 147.069 89.0048C146.806 88.3939 146.812 87.4673 146.262 87.1548C145.512 88.3142 144.408 89.2548 143.826 90.6283C142.898 92.8189 142.783 95.4986 142.434 98.2705L142.203 98.3861C140.592 97.9955 140.023 96.3361 139.426 94.9127C137.906 91.3111 137.626 85.5064 138.962 81.3627C139.304 80.2892 140.867 76.9064 140.233 75.9189C139.934 74.9298 138.939 74.3564 138.383 73.6002C137.655 72.5861 137.034 71.5002 136.528 70.3595C135.289 67.5455 134.709 64.397 133.403 61.558C132.781 60.197 131.725 58.8236 130.858 57.6158C129.894 56.2798 128.819 55.297 128.075 53.6783C127.812 53.1048 127.453 52.183 127.844 51.5908C127.965 51.1939 128.148 51.0298 128.539 50.9017C129.211 50.383 131.084 51.072 131.779 51.3595C133.64 52.1345 135.192 52.8673 136.765 53.9111C137.515 54.4111 138.279 55.3814 139.195 55.6502H140.239C141.869 56.022 143.694 55.7595 145.22 56.2236C147.912 57.0408 150.329 58.3173 152.514 59.7033C159.19 63.9142 164.648 69.9142 168.383 77.0736C168.987 78.2267 169.244 79.3252 169.775 80.547C170.844 83.0127 172.186 85.5517 173.248 87.9627C174.311 90.3736 175.342 92.797 176.837 94.7986C177.625 95.8486 180.67 96.4095 182.05 96.9955C183.02 97.4048 184.608 97.8314 185.523 98.3877C187.281 99.4439 188.978 100.7 190.626 101.861C191.444 102.447 193.972 103.717 194.1 104.76L194.092 104.761ZM142.315 60.633C141.615 60.6217 140.915 60.6994 140.234 60.8642V60.9798H140.35C140.753 61.8158 141.467 62.3533 141.967 63.0673L143.126 65.497L143.242 65.3877C143.962 64.8814 144.286 64.0689 144.286 62.8361C143.994 62.5314 143.956 62.1533 143.706 61.7923C143.376 61.3095 142.737 61.0423 142.315 60.633Z" fill="#00618A"/>
</svg>
