<svg width="200" height="200" viewBox="0 0 200 200" fill="none" xmlns="http://www.w3.org/2000/svg">
<path d="M93.45 0.0527422C93.02 0.0917366 91.651 0.228716 90.419 0.325702C62.013 2.88633 35.405 18.2121 18.552 41.7667C9.169 54.8639 3.166 69.7197 0.899 85.4565C0.0980002 90.9497 0 92.5724 0 100.019C0 107.467 0.0979996 109.09 0.9 114.582C6.334 152.133 33.06 183.683 69.306 195.373C75.797 197.464 82.639 198.891 90.42 199.751C93.451 200.083 106.549 200.083 109.58 199.751C123.011 198.265 134.389 194.943 145.611 189.215C147.331 188.336 147.664 188.101 147.429 187.906C147.273 187.788 139.941 177.955 131.144 166.071L115.152 144.471L95.112 114.817C84.086 98.5146 75.015 85.1825 74.936 85.1825C74.858 85.1635 74.78 98.3386 74.741 114.426C74.682 142.594 74.663 143.728 74.311 144.392C73.803 145.35 73.412 145.741 72.59 146.172C71.965 146.484 71.417 146.543 68.465 146.543H65.083L64.183 145.976C63.6258 145.627 63.1732 145.134 62.873 144.549L62.463 143.669L62.503 104.477L62.561 65.2644L63.167 64.5015C63.48 64.0915 64.145 63.5636 64.614 63.3096C65.415 62.9187 65.728 62.8797 69.11 62.8797C73.099 62.8797 73.763 63.0357 74.8 64.1695C75.093 64.4825 85.943 80.8241 98.925 100.508C112.068 120.432 125.218 140.351 138.377 160.265L154.213 184.25L155.015 183.722C162.111 179.109 169.619 172.541 175.562 165.699C188.211 151.175 196.364 133.466 199.101 114.582C199.902 109.09 200 107.467 200 100.019C200 92.5714 199.902 90.9497 199.101 85.4565C193.666 47.9059 166.94 16.3564 130.694 4.66708C124.301 2.59437 117.498 1.16758 109.873 0.307705C107.996 0.111733 95.073 -0.102236 93.451 0.0537416M134.389 60.534C135.327 61.003 136.09 61.9019 136.364 62.8397C136.52 63.3486 136.559 74.2171 136.52 98.7096L136.461 133.857L130.264 124.356L124.047 114.856V89.3079C124.047 72.7903 124.125 63.5046 124.242 63.0547C124.555 61.9608 125.239 61.101 126.178 60.592C126.979 60.1821 127.273 60.1421 130.342 60.1421C133.236 60.1421 133.744 60.1821 134.389 60.534Z" fill="white"/>
</svg>
