<svg width="326" height="200" viewBox="0 0 326 200" fill="none" xmlns="http://www.w3.org/2000/svg">
<g clip-path="url(#clip0_365_37)">
<path d="M161.16 199.423C160.057 199.423 159.026 199.129 158.069 198.614L148.282 192.798C146.81 191.988 147.546 191.694 147.988 191.547C149.975 190.884 150.343 190.736 152.403 189.559C152.624 189.412 152.919 189.485 153.139 189.633L160.646 194.123C160.94 194.27 161.308 194.27 161.528 194.123L190.89 177.118C191.185 176.971 191.332 176.676 191.332 176.308V142.372C191.332 142.003 191.185 141.71 190.89 141.562L161.528 124.631C161.234 124.483 160.866 124.483 160.646 124.631L131.283 141.562C130.989 141.709 130.841 142.077 130.841 142.371V176.308C130.841 176.603 130.989 176.97 131.283 177.118L139.305 181.756C143.647 183.964 146.369 181.387 146.369 178.811V145.316C146.369 144.875 146.737 144.433 147.252 144.433H151.005C151.447 144.433 151.888 144.801 151.888 145.316V178.811C151.888 184.626 148.724 188.013 143.205 188.013C141.512 188.013 140.188 188.013 136.434 186.172L128.708 181.756C126.794 180.652 125.617 178.59 125.617 176.382V142.445C125.617 140.237 126.794 138.175 128.708 137.071L158.069 120.066C159.91 119.036 162.412 119.036 164.251 120.066L193.613 137.071C195.526 138.175 196.704 140.237 196.704 142.445V176.382C196.704 178.59 195.526 180.652 193.613 181.756L164.251 198.761C163.294 199.203 162.19 199.423 161.16 199.423ZM170.212 176.087C157.335 176.087 154.685 170.198 154.685 165.192C154.685 164.75 155.053 164.309 155.568 164.309H159.395C159.836 164.309 160.204 164.603 160.204 165.045C160.793 168.947 162.486 170.861 170.286 170.861C176.467 170.861 179.117 169.462 179.117 166.149C179.117 164.235 178.381 162.837 168.741 161.88C160.719 161.07 155.716 159.303 155.716 152.899C155.716 146.936 160.72 143.402 169.109 143.402C178.528 143.402 183.164 146.642 183.753 153.708C183.753 153.929 183.68 154.15 183.532 154.371C183.385 154.518 183.164 154.665 182.944 154.665H179.117C178.749 154.665 178.381 154.371 178.308 154.003C177.424 149.954 175.143 148.629 169.109 148.629C162.339 148.629 161.529 150.985 161.529 152.751C161.529 154.886 162.486 155.549 171.611 156.726C180.662 157.905 184.931 159.598 184.931 165.928C184.857 172.407 179.559 176.087 170.212 176.087Z" fill="#539E43"/>
<path d="M70.0573 66.6957C70.0573 65.3709 69.3212 64.1186 68.1439 63.4562L36.9422 45.4944C36.4264 45.1995 35.8381 45.0524 35.2498 44.9785H34.955C34.3666 44.9785 33.7777 45.1995 33.2626 45.4944L2.0608 63.4562C0.882871 64.1186 0.147461 65.3702 0.147461 66.6957L0.22132 114.987C0.22132 115.649 0.589344 116.312 1.17767 116.607C1.76664 116.975 2.50205 116.975 3.01779 116.607L21.5622 106.006C22.7395 105.343 23.4756 104.092 23.4756 102.767V80.167C23.4756 78.8422 24.211 77.5906 25.3889 76.9282L33.2626 72.3639C33.8515 71.9957 34.5137 71.8479 35.1759 71.8479C35.8381 71.8479 36.5003 71.9957 37.016 72.3639L44.8897 76.9282C46.0676 77.5906 46.803 78.8416 46.803 80.167V102.767C46.803 104.092 47.5391 105.343 48.7164 106.006L67.2608 116.607C67.5473 116.787 67.8789 116.883 68.2175 116.883C68.556 116.883 68.8877 116.787 69.1741 116.607C69.7631 116.312 70.1311 115.649 70.1311 114.987L70.0573 66.6957ZM220.032 0.221178C219.444 -0.0737261 218.708 -0.0737261 218.192 0.221178C217.603 0.589331 217.235 1.17787 217.235 1.84029V49.6906C217.235 50.132 217.015 50.5734 216.573 50.8683C216.132 51.0887 215.69 51.0887 215.249 50.8683L207.448 46.3779C206.877 46.0523 206.23 45.8811 205.572 45.8811C204.914 45.8811 204.267 46.0523 203.695 46.3779L172.493 64.4135C171.316 65.076 170.58 66.3275 170.58 67.6524V103.65C170.58 104.975 171.316 106.227 172.493 106.889L203.695 124.925C204.267 125.251 204.914 125.422 205.572 125.422C206.23 125.422 206.877 125.251 207.448 124.925L238.65 106.889C239.828 106.227 240.564 104.975 240.564 103.65V13.9135C240.564 12.5148 239.828 11.2639 238.65 10.6008L220.032 0.221178ZM217.162 91.7982C217.162 92.1664 217.015 92.4607 216.72 92.6078L206.05 98.7912C205.901 98.8642 205.738 98.9021 205.572 98.9021C205.406 98.9021 205.242 98.8642 205.093 98.7912L194.423 92.6078C194.128 92.4607 193.981 92.0925 193.981 91.7982V79.4307C193.981 79.0626 194.128 78.7683 194.423 78.6212L205.093 72.4371C205.242 72.3642 205.406 72.3263 205.572 72.3263C205.738 72.3263 205.901 72.3642 206.05 72.4371L216.72 78.6212C217.015 78.7677 217.162 79.1365 217.162 79.4307V91.7982ZM323.866 79.1365C325.044 78.474 325.706 77.2225 325.706 75.897V67.1371C325.706 65.8123 324.97 64.5607 323.866 63.8983L292.885 45.9365C292.313 45.6109 291.667 45.4397 291.009 45.4397C290.35 45.4397 289.704 45.6109 289.132 45.9365L257.93 63.9715C256.752 64.6339 256.017 65.8855 256.017 67.2104V103.208C256.017 104.533 256.753 105.785 257.93 106.447L288.911 124.115C290.089 124.777 291.487 124.777 292.591 124.115L311.356 113.663C311.945 113.368 312.313 112.705 312.313 112.043C312.313 111.38 311.945 110.718 311.356 110.423L280.007 92.3874C279.418 92.0193 279.05 91.4307 279.05 90.7683V79.5053C279.05 78.8428 279.418 78.1804 280.007 77.8855L289.794 72.2906C290.08 72.1102 290.412 72.0144 290.751 72.0144C291.089 72.0144 291.421 72.1102 291.707 72.2906L301.495 77.8855C302.084 78.2537 302.451 78.8422 302.451 79.5053V88.339C302.451 89.0014 302.819 89.6638 303.408 89.9581C303.695 90.1386 304.026 90.2343 304.365 90.2343C304.704 90.2343 305.035 90.1386 305.322 89.9581L323.866 79.1365Z" fill="white"/>
<path d="M290.53 77.443C290.64 77.3709 290.768 77.3325 290.899 77.3325C291.029 77.3325 291.157 77.3709 291.267 77.443L297.228 80.9028C297.448 81.0506 297.595 81.271 297.595 81.5653V88.4856C297.595 88.7799 297.448 89.0009 297.228 89.1481L291.267 92.6079C291.157 92.68 291.029 92.7184 290.899 92.7184C290.768 92.7184 290.64 92.68 290.53 92.6079L284.57 89.1481C284.349 89.0009 284.202 88.7799 284.202 88.4856V81.5659C284.202 81.271 284.349 81.05 284.57 80.9035L290.53 77.443Z" fill="#539E43"/>
<path d="M122.232 46.0835C121.66 45.758 121.013 45.5869 120.356 45.5869C119.698 45.5869 119.051 45.758 118.479 46.0835L87.4983 63.9707C86.3204 64.6331 85.6582 65.8847 85.6582 67.2096V103.061C85.6582 104.385 86.3942 105.637 87.4983 106.299L118.479 124.188C119.051 124.513 119.698 124.684 120.356 124.684C121.013 124.684 121.66 124.513 122.232 124.188L153.213 106.299C154.391 105.637 155.054 104.385 155.054 103.061V67.2102C155.054 65.8854 154.317 64.6338 153.213 63.9714L122.232 46.0835Z" fill="url(#paint0_linear_365_37)"/>
<mask id="mask0_365_37" style="mask-type:luminance" maskUnits="userSpaceOnUse" x="85" y="45" width="71" height="80">
<path d="M122.232 46.0835C121.66 45.758 121.013 45.5869 120.356 45.5869C119.698 45.5869 119.051 45.758 118.479 46.0835L87.4983 63.9707C86.3204 64.6331 85.6582 65.8847 85.6582 67.2096V103.061C85.6582 104.385 86.3942 105.637 87.4983 106.299L118.479 124.188C119.051 124.513 119.698 124.684 120.356 124.684C121.013 124.684 121.66 124.513 122.232 124.188L153.213 106.299C154.391 105.637 155.054 104.385 155.054 103.061V67.2102C155.054 65.8854 154.317 64.6338 153.213 63.9714L122.232 46.0835Z" fill="white"/>
</mask>
<g mask="url(#mask0_365_37)">
<path d="M153.287 63.9714L122.159 46.0835C121.853 45.9289 121.532 45.8055 121.202 45.7153L86.3203 105.491C86.6094 105.844 86.9584 106.143 87.3512 106.375L118.479 124.263C119.362 124.778 120.392 124.926 121.349 124.631L154.096 64.7083C153.876 64.4141 153.581 64.1918 153.287 63.9714Z" fill="url(#paint1_linear_365_37)"/>
</g>
<mask id="mask1_365_37" style="mask-type:luminance" maskUnits="userSpaceOnUse" x="85" y="45" width="71" height="80">
<path d="M122.232 46.0835C121.66 45.758 121.013 45.5869 120.356 45.5869C119.698 45.5869 119.051 45.758 118.479 46.0835L87.4983 63.9707C86.3204 64.6331 85.6582 65.8847 85.6582 67.2096V103.061C85.6582 104.385 86.3942 105.637 87.4983 106.299L118.479 124.188C119.051 124.513 119.698 124.684 120.356 124.684C121.013 124.684 121.66 124.513 122.232 124.188L153.213 106.299C154.391 105.637 155.054 104.385 155.054 103.061V67.2102C155.054 65.8854 154.317 64.6338 153.213 63.9714L122.232 46.0835Z" fill="white"/>
</mask>
<g mask="url(#mask1_365_37)">
<path fill-rule="evenodd" clip-rule="evenodd" d="M153.361 106.3C154.244 105.785 154.906 104.901 155.201 103.944L121.054 45.6412C120.171 45.4941 119.214 45.5673 118.406 46.0826L87.498 63.8979L120.833 124.704C121.318 124.625 121.789 124.476 122.232 124.262L153.361 106.3Z" fill="url(#paint2_linear_365_37)"/>
<path fill-rule="evenodd" clip-rule="evenodd" d="M153.361 106.3L122.306 124.188C121.868 124.412 121.395 124.561 120.908 124.63L121.497 125.734L155.937 105.785V105.343L155.054 103.871C154.906 104.901 154.244 105.785 153.361 106.3Z" fill="url(#paint3_linear_365_37)"/>
<path fill-rule="evenodd" clip-rule="evenodd" d="M153.361 106.3L122.306 124.188C121.868 124.412 121.395 124.561 120.908 124.63L121.497 125.734L155.937 105.785V105.343L155.054 103.871C154.906 104.901 154.244 105.785 153.361 106.3Z" fill="url(#paint4_linear_365_37)"/>
</g>
</g>
<defs>
<linearGradient id="paint0_linear_365_37" x1="132.977" y1="59.4187" x2="99.0029" y2="112.785" gradientUnits="userSpaceOnUse">
<stop stop-color="#41873F"/>
<stop offset="0.3288" stop-color="#418B3D"/>
<stop offset="0.6352" stop-color="#419637"/>
<stop offset="0.9319" stop-color="#3FA92D"/>
<stop offset="1" stop-color="#3FAE2A"/>
</linearGradient>
<linearGradient id="paint1_linear_365_37" x1="115.652" y1="89.3351" x2="200.712" y2="43.138" gradientUnits="userSpaceOnUse">
<stop offset="0.1376" stop-color="#41873F"/>
<stop offset="0.4032" stop-color="#54A044"/>
<stop offset="0.7136" stop-color="#66B848"/>
<stop offset="0.9081" stop-color="#6CC04A"/>
</linearGradient>
<linearGradient id="paint2_linear_365_37" x1="84.5266" y1="85.1366" x2="156.216" y2="85.1366" gradientUnits="userSpaceOnUse">
<stop offset="0.09192" stop-color="#6CC04A"/>
<stop offset="0.2864" stop-color="#66B848"/>
<stop offset="0.5968" stop-color="#54A044"/>
<stop offset="0.8624" stop-color="#41873F"/>
</linearGradient>
<linearGradient id="paint3_linear_365_37" x1="84.5273" y1="114.863" x2="156.216" y2="114.863" gradientUnits="userSpaceOnUse">
<stop offset="0.09192" stop-color="#6CC04A"/>
<stop offset="0.2864" stop-color="#66B848"/>
<stop offset="0.5968" stop-color="#54A044"/>
<stop offset="0.8624" stop-color="#41873F"/>
</linearGradient>
<linearGradient id="paint4_linear_365_37" x1="166.66" y1="57.7231" x2="148.486" y2="152.92" gradientUnits="userSpaceOnUse">
<stop stop-color="#41873F"/>
<stop offset="0.3288" stop-color="#418B3D"/>
<stop offset="0.6352" stop-color="#419637"/>
<stop offset="0.9319" stop-color="#3FA92D"/>
<stop offset="1" stop-color="#3FAE2A"/>
</linearGradient>
<clipPath id="clip0_365_37">
<rect width="326" height="200" fill="white"/>
</clipPath>
</defs>
</svg>
