<svg width="200" height="200" viewBox="0 0 200 200" fill="none" xmlns="http://www.w3.org/2000/svg">
<g clip-path="url(#clip0_365_99)">
<path d="M138.398 36.7577H64.8827C29.9608 35.8592 0.937359 63.4374 0.0389211 98.3592C-0.859516 133.281 26.7186 162.305 61.6405 163.242C62.7342 163.281 63.828 163.281 64.9217 163.242H138.437C173.359 162.344 200.937 133.281 200.039 98.3592C199.101 64.7264 172.031 37.6561 138.398 36.7577ZM139.375 140.976C138.476 141.015 137.617 141.015 136.719 140.976H66.5233C43.9061 140.234 26.1717 121.328 26.9139 98.7108C27.617 77.1483 44.9217 59.8045 66.5233 59.1014H136.719C159.336 58.3592 178.242 76.0936 178.945 98.7108C179.687 121.328 161.992 140.234 139.375 140.976Z" fill="#DA3B34"/>
</g>
<defs>
<clipPath id="clip0_365_99">
<rect width="200" height="200" fill="white"/>
</clipPath>
</defs>
</svg>
