<svg width="201" height="200" viewBox="0 0 201 200" fill="none" xmlns="http://www.w3.org/2000/svg">
<g clip-path="url(#clip0_370_101)">
<path d="M99.6493 0.0565186C48.7461 0.0565186 51.9244 22.1075 51.9244 22.1075L51.9809 44.953H100.557V51.8118H32.6873C32.6873 51.8118 0.114258 48.1216 0.114258 99.4275C0.114258 150.735 28.5448 148.915 28.5448 148.915H45.512V125.107C45.512 125.107 44.5973 96.7067 73.4887 96.7067H121.667C121.667 96.7067 148.736 97.1436 148.736 70.5742V26.6432C148.736 26.6432 152.847 0.0565186 99.6493 0.0565186ZM72.8645 15.4197C74.0124 15.4186 75.1492 15.6437 76.2099 16.082C77.2706 16.5204 78.2344 17.1633 79.0461 17.9741C79.8577 18.7849 80.5014 19.7477 80.9402 20.8072C81.379 21.8668 81.6043 23.0024 81.6033 24.1491C81.6043 25.2957 81.379 26.4313 80.9402 27.4909C80.5014 28.5505 79.8577 29.5132 79.0461 30.324C78.2344 31.1348 77.2706 31.7778 76.2099 32.2161C75.1492 32.6544 74.0124 32.8795 72.8645 32.8785C71.7166 32.8795 70.5798 32.6544 69.5191 32.2161C68.4584 31.7778 67.4946 31.1348 66.6829 30.324C65.8713 29.5132 65.2276 28.5505 64.7888 27.4909C64.35 26.4313 64.1247 25.2957 64.1257 24.1491C64.1247 23.0024 64.35 21.8668 64.7888 20.8072C65.2276 19.7477 65.8713 18.7849 66.6829 17.9741C67.4946 17.1633 68.4584 16.5204 69.5191 16.082C70.5798 15.6437 71.7166 15.4186 72.8645 15.4197Z" fill="url(#paint0_linear_370_101)"/>
<path d="M101.094 199.315C151.998 199.315 148.819 177.264 148.819 177.264L148.763 154.419H100.186V147.56H168.056C168.056 147.56 200.629 151.25 200.629 99.9428C200.629 48.6361 172.198 50.4557 172.198 50.4557H155.231V74.2636C155.231 74.2636 156.146 102.664 127.254 102.664H79.0755C79.0755 102.664 52.0072 102.227 52.0072 128.797V172.729C52.0072 172.729 47.8969 199.315 101.094 199.315M127.878 183.953C126.731 183.954 125.594 183.729 124.533 183.291C123.472 182.852 122.509 182.209 121.697 181.399C120.885 180.588 120.242 179.625 119.803 178.565C119.364 177.506 119.139 176.37 119.14 175.224C119.139 174.077 119.364 172.941 119.803 171.882C120.241 170.822 120.885 169.859 121.697 169.048C122.508 168.237 123.472 167.594 124.533 167.156C125.594 166.717 126.73 166.492 127.878 166.493C129.026 166.492 130.163 166.717 131.224 167.156C132.285 167.594 133.248 168.237 134.06 169.048C134.872 169.859 135.515 170.821 135.954 171.881C136.393 172.941 136.618 174.076 136.617 175.223C136.618 176.369 136.393 177.505 135.954 178.565C135.515 179.624 134.872 180.587 134.06 181.398C133.248 182.209 132.285 182.851 131.224 183.29C130.163 183.728 129.026 183.954 127.878 183.953Z" fill="url(#paint1_linear_370_101)"/>
</g>
<defs>
<linearGradient id="paint0_linear_370_101" x1="19.3837" y1="17.9786" x2="118.647" y2="116.357" gradientUnits="userSpaceOnUse">
<stop stop-color="#387EB8"/>
<stop offset="1" stop-color="#366994"/>
</linearGradient>
<linearGradient id="paint1_linear_370_101" x1="80.376" y1="81.0831" x2="186.979" y2="181.966" gradientUnits="userSpaceOnUse">
<stop stop-color="#FFE052"/>
<stop offset="1" stop-color="#FFC331"/>
</linearGradient>
<clipPath id="clip0_370_101">
<rect width="201" height="200" fill="white"/>
</clipPath>
</defs>
</svg>
