<svg width="200" height="200" viewBox="0 0 200 200" fill="none" xmlns="http://www.w3.org/2000/svg">
<path d="M100 75C146.525 75 175 91.1875 175 100C175 108.812 146.525 125 100 125C53.475 125 25 108.812 25 100C25 91.1875 53.475 75 100 75ZM100 62.5C51.675 62.5 12.5 79.2875 12.5 100C12.5 120.712 51.675 137.5 100 137.5C148.325 137.5 187.5 120.712 187.5 100C187.5 79.2875 148.325 62.5 100 62.5Z" fill="#00BCD4"/>
<path d="M100 87.5C97.5277 87.5 95.111 88.2331 93.0554 89.6066C90.9998 90.9801 89.3976 92.9324 88.4515 95.2165C87.5054 97.5005 87.2579 100.014 87.7402 102.439C88.2225 104.863 89.413 107.091 91.1612 108.839C92.9093 110.587 95.1366 111.778 97.5614 112.26C99.9861 112.742 102.499 112.495 104.784 111.548C107.068 110.602 109.02 109 110.393 106.945C111.767 104.889 112.5 102.472 112.5 100C112.5 96.6848 111.183 93.5054 108.839 91.1612C106.495 88.817 103.315 87.5 100 87.5Z" fill="#00BCD4"/>
<path d="M65.3622 34.4189C77.9685 34.4189 102.469 54.2752 121.65 87.5002C144.912 127.794 145.131 160.544 137.5 164.95C136.619 165.407 135.634 165.622 134.643 165.575C122.037 165.575 97.531 145.725 78.3497 112.5C55.0873 72.2064 54.8685 39.4564 62.4997 35.0502C63.382 34.5927 64.3696 34.3708 65.3622 34.4189ZM65.356 21.9252C62.1707 21.8676 59.0276 22.6593 56.2497 24.2189C38.3122 34.5752 43.3622 76.9002 67.5247 118.75C88.0497 154.313 115.775 178.081 134.65 178.081C137.834 178.134 140.975 177.338 143.75 175.775C161.687 165.425 156.637 123.1 132.475 81.2502C111.95 45.6877 84.2247 21.9189 65.3497 21.9189L65.356 21.9252Z" fill="#00BCD4"/>
<path d="M134.644 34.4186C135.635 34.3715 136.62 34.5871 137.5 35.0436C145.132 39.4561 144.913 72.2061 121.65 112.5C102.463 145.725 77.9628 165.581 65.3565 165.581C64.366 165.628 63.3806 165.413 62.5003 164.956C54.869 160.537 55.0878 127.787 78.3503 87.4998C97.5378 54.2748 122.038 34.4186 134.644 34.4186ZM134.644 21.9186C115.769 21.9186 88.0503 45.6936 67.519 81.2498C43.369 123.1 38.3128 165.425 56.2503 175.775C59.0269 177.339 62.1701 178.135 65.3565 178.081C84.2315 178.081 111.95 154.306 132.482 118.75C156.632 76.8998 161.688 34.5748 143.75 24.2248C140.974 22.6608 137.83 21.8647 134.644 21.9186Z" fill="#00BCD4"/>
</svg>
